# xmcd
#
# Track frame offsets: 
#        150
#        11175
#        20290
#        29849
#        42718
#        54684
#        68020
#        80905
#        96350
#        108222
#        121033
#        133802
#        145525
#        156253
#        173698
#        185737
#        198660
#        217330
#
# Disc length: 3126 seconds
#
# Revision: 0
# Processed by: cddbd v1.5.2PL0 Copyright (c) Steve Scherf et al.
# Submitted via: ExactAudioCopyFreeDBPlugin 1.0
#
DISCID=120c3412
DTITLE=Doug Kershaw  - Very Best of Doug Kershaw 
DYEAR=2009
DGENRE=Cajun
TTITLE0=Hey Mae
TTITLE1=It Takes All Day to Get Over Night
TTITLE2=Down South in New Orleans
TTITLE3=Hold Me Tight
TTITLE4=Mendocino
TTITLE5=Juke Box Songs
TTITLE6=Hippy Tie-O
TTITLE7=You Done Me Wrong
TTITLE8=Bad Moon Rising
TTITLE9=Real Ole Cajun Me
TTITLE10=Sweet Genevieve
TTITLE11=The Rains Came
TTITLE12=The Town's Romeo
TTITLE13=We'll Take out Last Walk Tonight
TTITLE14=Wichita Wild Cat Man
TTITLE15=Louisiana Sun
TTITLE16=The Sooner You Go I Can Cry
TTITLE17=Louisiana Man
EXTD=
EXTT0=
EXTT1=
EXTT2=
EXTT3=
EXTT4=
EXTT5=
EXTT6=
EXTT7=
EXTT8=
EXTT9=
EXTT10=
EXTT11=
EXTT12=
EXTT13=
EXTT14=
EXTT15=
EXTT16=
EXTT17=
PLAYORDER=
